<?xml version="1.0" standalone="no"?>
<!DOCTYPE svg PUBLIC "-//W3C//DTD SVG 20010904//EN"
 "http://www.w3.org/TR/2001/REC-SVG-20010904/DTD/svg10.dtd">
<svg version="1.0" xmlns="http://www.w3.org/2000/svg"
 width="700.000000pt" height="700.000000pt" viewBox="0 0 700.000000 700.000000"
 preserveAspectRatio="xMidYMid meet">
<metadata>
Created by potrace 1.11, written by Peter Selinger 2001-2013
</metadata>
<g transform="translate(0.000000,700.000000) scale(0.100000,-0.100000)"
fill="#000000" stroke="none">
<path d="M1335 5463 c-281 -61 -458 -273 -458 -548 0 -223 142 -426 353 -504
366 -135 751 144 736 534 -12 286 -240 511 -526 520 -47 1 -94 1 -105 -2z"/>
<path d="M2665 5460 l-40 -5 0 -1852 0 -1853 332 0 333 0 1 1398 0 1397 35
-70 c18 -38 61 -128 95 -200 34 -71 96 -200 137 -285 76 -159 108 -227 207
-435 139 -291 165 -346 213 -445 27 -58 78 -163 112 -235 34 -71 82 -170 105
-220 23 -49 68 -144 100 -210 31 -66 74 -156 95 -200 21 -44 74 -154 117 -245
44 -91 88 -184 98 -207 l19 -43 747 0 c589 0 748 3 751 13 2 6 4 842 4 1857
l-1 1845 -333 3 -332 2 0 -782 c-1 -431 -2 -1116 -3 -1523 l-2 -740 -204 0
-204 -1 -75 156 c-41 85 -99 207 -129 270 -31 63 -72 151 -93 195 -21 44 -68
143 -105 220 -37 77 -84 176 -105 220 -21 44 -64 134 -95 200 -32 66 -77 161
-100 210 -23 50 -75 158 -115 240 -40 83 -85 177 -100 210 -26 57 -53 112
-208 435 -35 74 -79 167 -97 205 -18 39 -68 142 -110 230 -42 88 -86 179 -96
203 l-18 42 -93 0 c-51 1 -253 2 -448 3 -195 1 -373 0 -395 -3z"/>
</g>
</svg>
