<svg width="172" height="122" xmlns="http://www.w3.org/2000/svg">
    <g fill-rule="nonzero" fill="none">
        <path d="M147.9 104.6H144v-2.5h3.9v2.5zm-8.8 0h-5v-2.5h5v2.5zm-10 0h-5v-2.5h5v2.5zm-10 0h-5v-2.5h5v2.5zm-10 0h-5v-2.5h5v2.5zm-10 0h-5v-2.5h5v2.5z" fill="#231F20"/>
        <path d="M24.8 103.3h45.1" fill="#FFF"/>
        <g transform="translate(113 95)">
            <circle fill="#FFF" cx="8.5" cy="8.3" r="6.4"/>
            <path d="M8.5 15.9C4.3 15.9.9 12.5.9 8.3.9 4.1 4.3.7 8.5.7c4.2 0 7.6 3.4 7.6 7.6 0 4.2-3.4 7.6-7.6 7.6zm0-12.7c-2.8 0-5.1 2.3-5.1 5.1s2.3 5.1 5.1 5.1 5.1-2.3 5.1-5.1-2.2-5.1-5.1-5.1z" fill="#231F20"/>
        </g>
        <path fill="#231F20" d="M24.8 102.1h42.4v2.5H24.8z"/>
        <path d="M35.5 45.9l50 68.1" fill="#FFF"/>
        <path d="M14.8 84.1l-2.2-1.2 2.4-4.4 2.2 1.2-2.4 4.4zm4.8-8.8l-2.2-1.2 2.4-4.4L22 71l-2.4 4.3zm4.9-8.7l-2.2-1.2 2.4-4.4 2.2 1.2-2.4 4.4zm4.8-8.8l-2.2-1.2 2.4-4.4 2.2 1.2-2.4 4.4z" fill="#231F20"/>
        <path d="M134.4 45.9L85.5 114" fill="#FFF"/>
        <g transform="translate(0 82)">
            <path fill="#FFF" d="M2 1.4h22.3v37.2H2z"/>
            <path d="M23.1 2.6v34.7H3.2V2.6h19.9zM25.6.1H.7v39.7h24.8V.1h.1z" fill="#231F20"/>
            <circle fill="#231F20" cx="13.2" cy="32.2" r="2"/>
        </g>
        <g transform="translate(120 7)">
            <path fill="#FFF" d="M2 2.1h22.3v37.2H2z"/>
            <path d="M23 3.3V38H3.2V3.3H23zM25.5.8H.7v39.7h24.8V.8z" fill="#231F20"/>
            <circle fill="#231F20" cx="13.1" cy="32.9" r="2"/>
        </g>
        <g transform="translate(143 75)">
            <path fill="#39C0BA" d="M.4 0h28.2v46.9H.4z"/>
            <circle fill="#FFF" cx="14.2" cy="39.1" r="2.5"/>
        </g>
        <g transform="translate(71 74)">
            <path fill="#39C0BA" d="M.3.7h28.5v47.2H.3z"/>
            <circle fill="#FFF" cx="14.5" cy="40" r="2.5"/>
        </g>
        <g transform="translate(77 26)">
            <circle fill="#FFF" cx="8.5" cy="8.2" r="6.4"/>
            <path d="M8.5 15.8C4.3 15.8.9 12.4.9 8.2.9 4 4.3.6 8.5.6c4.2 0 7.6 3.4 7.6 7.6 0 4.2-3.4 7.6-7.6 7.6zm0-12.7c-2.8 0-5.1 2.3-5.1 5.1s2.3 5.1 5.1 5.1 5.1-2.3 5.1-5.1-2.3-5.1-5.1-5.1z" fill="#231F20"/>
        </g>
        <g transform="translate(17 56)">
            <circle fill="#FFF" cx="7.8" cy="8.1" r="6.5"/>
            <path d="M7.8 15.8C3.5 15.8.1 12.3.1 8.1.1 3.8 3.6.4 7.8.4c4.3 0 7.7 3.5 7.7 7.7.1 4.3-3.4 7.7-7.7 7.7zm0-12.9c-2.9 0-5.2 2.3-5.2 5.2 0 2.9 2.3 5.2 5.2 5.2 2.9 0 5.2-2.3 5.2-5.2 0-2.9-2.3-5.2-5.2-5.2z" fill="#231F20"/>
        </g>
        <g transform="translate(22)">
            <path fill="#39C0BA" d="M.4.7h28.2v46.9H.4z"/>
            <circle fill="#FFF" cx="14.5" cy="38.7" r="2.5"/>
        </g>
        <path d="M78.1 35.4h-5v-2.5h5v2.5zm-10 0h-5v-2.5h5v2.5zm-10 0h-5v-2.5h5v2.5zM117.9 35.4h-5v-2.5h5v2.5zm-10 0h-5v-2.5h5v2.5zm-10 0h-5v-2.5h5v2.5zM150.2 71l-12.7-24.7h-2.8L147.4 71z" fill="#231F20"/>
        <path fill="#231F20" d="M105.9 87.7l29.5-41.1-2-1.4-29.5 41zM41.5 52l-2 1.4 25.6 34.9 2-1.5z"/>
    </g>
</svg>