<svg width="127" height="150" xmlns="http://www.w3.org/2000/svg">
    <g fill-rule="nonzero" fill="none">
        <g transform="translate(113 101)">
            <circle fill="#FFF" cx="7" cy="6.4" r="4.9"/>
            <path d="M7 12.6C3.6 12.6.9 9.8.9 6.5S3.7.4 7 .4s6.1 2.8 6.1 6.1-2.7 6.1-6.1 6.1zm0-9.8c-2 0-3.6 1.6-3.6 3.6S5 10 7 10s3.6-1.6 3.6-3.6S9 2.8 7 2.8z" fill="#231F20"/>
        </g>
        <path fill="#231F20" d="M62.4 10.8h2.5v131.7h-2.5zM120.7 77.9h-5v-2.5h5v2.5zm-10 0h-5v-2.5h5v2.5zm-10 0h-5v-2.5h5v2.5zm-10 0h-5v-2.5h5v2.5zm-10 0h-5v-2.5h5v2.5zm-10 0h-5v-2.5h5v2.5zm-10 0h-5v-2.5h5v2.5zm-10 0h-5v-2.5h5v2.5zm-10 0h-5v-2.5h5v2.5zm-10 0h-5v-2.5h5v2.5zm-10 0h-5v-2.5h5v2.5zm-10 0h-5v-2.5h5v2.5z"/>
        <path fill="#231F20" d="M12.374 47.264l103.693 56.523-1.197 2.195L11.178 49.46z"/>
        <path fill="#231F20" d="M114.958 47.225l1.196 2.196-103.703 56.51-1.196-2.195z"/>
        <path d="M29.8 138.3l-2.1-1.3 2.6-4.3 2.1 1.3-2.6 4.3zm5.2-8.5l-2.1-1.3 2.6-4.3 2.1 1.3-2.6 4.3zm5.2-8.6l-2.1-1.3 2.6-4.3 2.1 1.3-2.6 4.3zm5.2-8.5l-2.1-1.3 2.6-4.3 2.1 1.3-2.6 4.3zm5.2-8.5l-2.1-1.3 2.6-4.3 2.1 1.3-2.6 4.3zm5.2-8.6l-2.1-1.3 2.6-4.3 2.1 1.3-2.6 4.3zm5.2-8.5l-2.1-1.3 2.6-4.3 2.1 1.3-2.6 4.3zm5.2-8.5l-2.1-1.3 2.6-4.3 2.1 1.3-2.6 4.3zm5.2-8.6l-2.1-1.3 2.6-4.3 2.1 1.3-2.6 4.3zm5.2-8.5l-2.1-1.3 2.6-4.3 2.1 1.3-2.6 4.3zm5.2-8.6l-2.1-1.3 2.6-4.3 2.1 1.3-2.6 4.3zm5.2-8.5l-2.1-1.3 2.6-4.3 2.1 1.3-2.6 4.3zm5.2-8.5l-2.1-1.3 2.6-4.3 2.1 1.3-2.6 4.3zm5.2-8.6L95.3 26l2.6-4.3L100 23l-2.6 4.3z" fill="#231F20"/>
        <path d="M96.4 138.3l-2.6-4.3 2.1-1.3 2.6 4.3-2.1 1.3zm-5.2-8.5l-2.6-4.3 2.1-1.3 2.6 4.3-2.1 1.3zm-5.2-8.6l-2.6-4.3 2.1-1.3 2.6 4.3-2.1 1.3zm-5.2-8.5l-2.6-4.3 2.1-1.3 2.6 4.3-2.1 1.3zm-5.2-8.5L73 99.9l2.1-1.3 2.6 4.3-2.1 1.3zm-5.2-8.6l-2.6-4.3 2.1-1.3 2.6 4.3-2.1 1.3zm-5.2-8.5l-2.6-4.3 2.1-1.3 2.6 4.3-2.1 1.3zM60 78.6l-2.6-4.3 2.1-1.3 2.6 4.3-2.1 1.3zM54.8 70l-2.6-4.3 2.1-1.3 2.6 4.3-2.1 1.3zm-5.2-8.5L47 57.2l2.1-1.3 2.6 4.3-2.1 1.3zm-5.2-8.6l-2.6-4.3 2.1-1.3 2.6 4.3-2.1 1.3zm-5.2-8.5l-2.6-4.3 2.1-1.3 2.6 4.3-2.1 1.3zM34 35.9l-2.6-4.3 2.1-1.3 2.6 4.3-2.1 1.3zm-5.2-8.6L26.2 23l2.1-1.3 2.6 4.3-2.1 1.3z" fill="#231F20"/>
        <g transform="translate(0 101)">
            <circle fill="#FFF" cx="6.9" cy="6.4" r="4.9"/>
            <path d="M6.9 12.6C3.5 12.6.8 9.8.8 6.5S3.6.4 6.9.4 13 3.2 13 6.5s-2.7 6.1-6.1 6.1zm0-9.8c-2 0-3.6 1.6-3.6 3.6S4.9 10 6.9 10s3.6-1.6 3.6-3.6-1.6-3.6-3.6-3.6z" fill="#231F20"/>
        </g>
        <path d="M63.7 12.6c-3.4 0-6.1-2.8-6.1-6.1S60.4.4 63.7.4s6.1 2.8 6.1 6.1-2.7 6.1-6.1 6.1zm0-9.8c-2 0-3.6 1.6-3.6 3.6s1.6 3.6 3.6 3.6 3.6-1.6 3.6-3.6-1.6-3.6-3.6-3.6z" fill="#231F20"/>
        <path fill="#39C0BA" d="M36.2 37.1h55v84.8h-55z"/>
        <path d="M92.4 123.2H34.9V35.9h57.5v87.3zm-55-2.5h52.5V38.4H37.4v82.3z" fill="#FFF"/>
        <circle fill="#FFF" cx="63.7" cy="107.6" r="2.5"/>
        <g transform="translate(4 41)">
            <circle fill="#FFF" cx="6.4" cy="6.9" r="4.9"/>
            <path d="M6.4 13C3 13 .3 10.2.3 6.9.3 3.5 3.1.8 6.4.8s6.1 2.8 6.1 6.1c0 3.4-2.7 6.1-6.1 6.1zm0-9.8c-2 0-3.6 1.6-3.6 3.6s1.6 3.6 3.6 3.6S10 8.8 10 6.8 8.4 3.2 6.4 3.2z" fill="#231F20"/>
        </g>
        <g transform="translate(110 41)">
            <circle fill="#FFF" cx="6.5" cy="6.9" r="4.9"/>
            <path d="M6.5 13C3.1 13 .4 10.2.4 6.9.4 3.5 3.2.8 6.5.8s6.1 2.8 6.1 6.1c.1 3.4-2.7 6.1-6.1 6.1zm0-9.8c-2 0-3.6 1.6-3.6 3.6s1.6 3.6 3.6 3.6 3.6-1.6 3.6-3.6-1.5-3.6-3.6-3.6z" fill="#231F20"/>
        </g>
        <g transform="translate(57 137)">
            <circle fill="#FFF" cx="6.7" cy="6.7" r="4.9"/>
            <path d="M6.7 12.8C3.3 12.8.6 10 .6 6.7S3.4.6 6.7.6s6.1 2.8 6.1 6.1-2.7 6.1-6.1 6.1zm0-9.8c-2 0-3.6 1.6-3.6 3.6s1.6 3.6 3.6 3.6 3.6-1.6 3.6-3.6S8.7 3 6.7 3z" fill="#231F20"/>
        </g>
        <path fill="#FFF" d="M56.9 67.8h13.9v14.1H56.9z"/>
        <path d="M72.1 83.2H55.7V66.6h16.4v16.6zm-13.9-2.5h11.4V69.1H58.2v11.6z" fill="#231F20"/>
        <path fill="#231F20" d="M62.4 60.7h2.5v6.1h-2.5zM62.4 82.7h2.5v6.1h-2.5zM71.6 73.5h6.1V76h-6.1zM49.6 73.5h6.1V76h-6.1z"/>
    </g>
</svg>