<svg width="147" height="103" xmlns="http://www.w3.org/2000/svg">
    <g fill-rule="nonzero" fill="none">
        <path fill="#FFF" d="M40.3 1.7h105.5v66.2H40.3z"/>
        <path d="M147 69.1H39V.4h108v68.7zM41.6 66.6h103V2.9h-103v63.7zM7.3 29.7l-1.6-1.9 3.9-3.2 1.6 1.9-3.9 3.2zm7.7-6.3l-1.6-1.9 3.9-3.2 1.6 1.9-3.9 3.2zm7.8-6.3l-1.6-1.9 3.9-3.2 1.6 1.9-3.9 3.2zm7.7-6.4l-1.6-1.9 3.9-3.2 1.6 1.9-3.9 3.2z" fill="#231F20"/>
        <path d="M114.3 29.7l-1.6-1.9 3.9-3.2 1.6 1.9-3.9 3.2zm7.7-6.3l-1.6-1.9 3.9-3.2 1.6 1.9-3.9 3.2zm7.8-6.3l-1.6-1.9 3.9-3.2 1.6 1.9-3.9 3.2zm7.7-6.4l-1.6-1.9 3.9-3.2 1.6 1.9-3.9 3.2zM114.3 98l-1.6-1.9 3.9-3.2 1.6 1.9-3.9 3.2zm7.7-6.3l-1.6-1.9 3.9-3.2 1.6 1.9-3.9 3.2zm7.8-6.3l-1.6-1.9 3.9-3.2 1.6 1.9-3.9 3.2zm7.7-6.4l-1.6-1.9 3.9-3.2 1.6 1.9-3.9 3.2zM61.2 29.7l-1.6-1.9 3.9-3.2 1.6 1.9-3.9 3.2zm7.7-6.3l-1.6-1.9 3.9-3.2 1.6 1.9-3.9 3.2zm7.8-6.3l-1.6-1.9L79 12l1.6 1.9-3.9 3.2zm7.7-6.4l-1.6-1.9 3.9-3.2 1.6 1.9-3.9 3.2z" fill="#231F20"/>
        <path fill="#39C0BA" d="M.6 33.9h110.1v68.4H.6z"/>
        <g transform="translate(34 47)">
            <ellipse fill="#FFF" cx="21" cy="20.6" rx="19.2" ry="19.4"/>
            <path d="M21 41.3C9.7 41.3.6 32 .6 20.7S9.7 0 21 0c11.3 0 20.4 9.3 20.4 20.6S32.2 41.3 21 41.3zm0-38.8c-9.9 0-17.9 8.1-17.9 18.1 0 10 8 18.1 17.9 18.1 9.9 0 17.9-8.1 17.9-18.1 0-10-8-18.1-17.9-18.1z" fill="#231F20"/>
        </g>
        <path d="M42.6 67.6c0-6.9 5.5-12.5 12.4-12.5s12.4 5.6 12.4 12.5" fill="#FFF"/>
        <path d="M68.6 67.6h-2.5c0-6.2-5-11.3-11.1-11.3s-11.1 5.1-11.1 11.3h-2.5c0-7.6 6.1-13.8 13.6-13.8S68.6 60 68.6 67.6z" fill="#231F20"/>
        <g>
            <path d="M60.1 56.2L55 67.6" fill="#FFF"/>
            <path fill="#231F20" d="M58.944 55.747l2.282 1.02-5.102 11.412-2.282-1.02z"/>
        </g>
        <ellipse fill="#231F20" cx="55" cy="67.6" rx="2.8" ry="2.9"/>
    </g>
</svg>