<svg width="32" height="27" xmlns="http://www.w3.org/2000/svg">
    <path d="M10.5 25.934c0 .668-.357 1.066-.864 1.066a1.33 1.33 0 0 1-.59-.155l-8.173-4.14c-.48-.243-.873-.888-.873-1.43V.985C0 .447.284.131.691.131c.144 0 .305.038.472.123L1.45.4h.003l9.009 4.562c.015.009.026.023.038.035v20.936zm9.44-24.522l.55-.905a1.083 1.083 0 0 1 1.18-.472.893.893 0 0 1 .203.073l9.501 4.81c.003 0 .003.004.003.004l.009.003c.006.003.006.012.011.014.047.039.068.103.036.156L21.97 20.669l-.967 1.588-6.27-12.278 5.206-8.567zM12 17.704V7.922l6.735 13.195-6.058-3.067-.677-.346zm19.5 8.23c0 .627-.372.984-.92.984-.246 0-.527-.07-.823-.22L28.4 26.01l-6.058-3.068L31.5 7.872v18.062z" fill="#39c0ba" fill-rule="nonzero"/>
</svg>