<svg width="30" height="27" xmlns="http://www.w3.org/2000/svg">
    <path d="M29.3 0c-.207 1.053-4.905 24.936-5.196 26.434l-7.912-7.408-5.347 4.576 1.48-5.86S22.545 7.275 23.16 6.666c.496-.488.6-.659.6-.829 0-.225-.115-.387-.38-.387-.238 0-.562.23-.733.339-2.18 1.374-11.461 6.727-16.025 9.355-.275-.112-4.399-1.788-6.621-2.686a85066.85 85066.85 0 0 1 17.037-7.253c3.312-1.41 6.418-2.73 8.76-3.725C27.776.64 28.808.206 29.3 0zm-5.251 26.71h.003l-.003.01c.002-.012-.002-.001 0-.01z" fill="#39c0ba" fill-rule="nonzero"/>
</svg>